<svg width="512" height="512" fill="none" xmlns="http://www.w3.org/2000/svg"><circle cx="256" cy="256" r="248" fill="#00cc00"/><path d="M384 160c0-17.7-14.3-32-32-32H160c-17.7 0-32 14.3-32 32v160c0 17.7 14.3 32 32 32h32v48l64-48h96c17.7 0 32-14.3 32-32V160z" fill="#fff"/><rect x="180" y="200" width="120" height="12" rx="6" fill="#00cc00"/><rect x="180" y="240" width="152" height="12" rx="6" fill="#00cc00"/><rect x="180" y="280" width="80" height="12" rx="6" fill="#00cc00"/><path d="M140 180h20v10h-20z" fill="#00cc00"/><path d="M140 180v40h10v-40zm0 40h20v10h-20z" fill="#00cc00"/><circle cx="256" cy="256" r="248" stroke="#009900" stroke-width="8"/></svg>